HIERARCHY
ROOT Hips
{
  OFFSET 76.347 92.6806 -49.6304
  CHANNELS 6 Xposition Yposition Zposition Zrotation Xrotation Yrotation
  JOINT RightUpLeg
  {
    OFFSET -9.2536 -1.56971 -0.009835
    CHANNELS 3 Zrotation Xrotation Yrotation
    JOINT RightLeg
    {
      OFFSET 0.003613 -41.8721 0.033096
      CHANNELS 3 Zrotation Xrotation Yrotation
      JOINT RightFoot
      {
        OFFSET 0.190023 -41.7536 -0.162077
        CHANNELS 3 Zrotation Xrotation Yrotation
        End Site
        {
          OFFSET 0 -7.69 17.5
        }
      }
    }
  }
  JOINT LeftUpLeg
  {
    OFFSET 9.25993 -1.60807 -0.003591
    CHANNELS 3 Zrotation Xrotation Yrotation
    JOINT LeftLeg
    {
      OFFSET 0.056181 -41.8768 -0.046918
      CHANNELS 3 Zrotation Xrotation Yrotation
      JOINT LeftFoot
      {
        OFFSET 0.206009 -42.0177 -0.454554
        CHANNELS 3 Zrotation Xrotation Yrotation
        End Site
        {
          OFFSET 0 -7.69 17.5
        }
      }
    }
  }
  JOINT Spine
  {
    OFFSET 0.055174 14.3087 0.014143
    CHANNELS 3 Zrotation Xrotation Yrotation
    JOINT Spine1
    {
      OFFSET 0.013927 9.70629 0.00545
      CHANNELS 3 Zrotation Xrotation Yrotation
      JOINT Spine2
      {
        OFFSET 0.014023 10.1242 0.014512
        CHANNELS 3 Zrotation Xrotation Yrotation
        JOINT Spine3
        {
          OFFSET 0.012086 9.7191 0.009001
          CHANNELS 3 Zrotation Xrotation Yrotation
          JOINT Neck
          {
            OFFSET 0.131707 10.3859 0.054297
            CHANNELS 3 Zrotation Xrotation Yrotation
            JOINT Head
            {
              OFFSET -0.005552 9.48088 0.122183
              CHANNELS 3 Zrotation Xrotation Yrotation
              End Site
              {
                OFFSET 0 15.95 0
              }
            }
          }
          JOINT RightShoulder
          {
            OFFSET -3.20137 6.92944 0.018295
            CHANNELS 3 Zrotation Xrotation Yrotation
            JOINT RightArm
            {
              OFFSET -12.7595 0.009634 0.00435
              CHANNELS 3 Zrotation Xrotation Yrotation
              JOINT RightForeArm
              {
                OFFSET -26.5076 -0.004773 -0.015002
                CHANNELS 3 Zrotation Xrotation Yrotation
                JOINT RightHand
                {
                  OFFSET -26.002 -5.9e-05 -0.011656
                  CHANNELS 3 Zrotation Xrotation Yrotation
                  JOINT RightHandThumb1
                  {
                    OFFSET -2.48905 0.190105 3.12053
                    CHANNELS 3 Zrotation Xrotation Yrotation
                    JOINT RightHandThumb2
                    {
                      OFFSET -3.68274 0 0
                      CHANNELS 3 Zrotation Xrotation Yrotation
                      JOINT RightHandThumb3
                      {
                        OFFSET -2.55832 0 0
                        CHANNELS 3 Zrotation Xrotation Yrotation
                        End Site
                        {
                          OFFSET -2.194 0 0
                        }
                      }
                    }
                  }
                  JOINT RightInHandIndex
                  {
                    OFFSET -3.22368 0.508421 1.97842
                    CHANNELS 3 Zrotation Xrotation Yrotation
                    JOINT RightHandIndex1
                    {
                      OFFSET -5.21684 -0.091368 0.999158
                      CHANNELS 3 Zrotation Xrotation Yrotation
                      JOINT RightHandIndex2
                      {
                        OFFSET -3.61937 0 0
                        CHANNELS 3 Zrotation Xrotation Yrotation
                        JOINT RightHandIndex3
                        {
                          OFFSET -2.0521 0 0
                          CHANNELS 3 Zrotation Xrotation Yrotation
                          End Site
                          {
                            OFFSET -1.805 0 0
                          }
                        }
                      }
                    }
                  }
                  JOINT RightInHandMiddle
                  {
                    OFFSET -3.38211 0.517263 0.756737
                    CHANNELS 3 Zrotation Xrotation Yrotation
                    JOINT RightHandMiddle1
                    {
                      OFFSET -5.17411 -0.084 0.313895
                      CHANNELS 3 Zrotation Xrotation Yrotation
                      JOINT RightHandMiddle2
                      {
                        OFFSET -3.94947 0 0
                        CHANNELS 3 Zrotation Xrotation Yrotation
                        JOINT RightHandMiddle3
                        {
                          OFFSET -2.47579 0 0
                          CHANNELS 3 Zrotation Xrotation Yrotation
                          End Site
                          {
                            OFFSET -1.975 0 0
                          }
                        }
                      }
                    }
                  }
                  JOINT RightInHandRing
                  {
                    OFFSET -3.36516 0.537895 -0.128947
                    CHANNELS 3 Zrotation Xrotation Yrotation
                    JOINT RightHandRing1
                    {
                      OFFSET -4.63474 -0.022105 -0.478947
                      CHANNELS 3 Zrotation Xrotation Yrotation
                      JOINT RightHandRing2
                      {
                        OFFSET -3.44238 0 0
                        CHANNELS 3 Zrotation Xrotation Yrotation
                        JOINT RightHandRing3
                        {
                          OFFSET -2.3881 0 0
                          CHANNELS 3 Zrotation Xrotation Yrotation
                          End Site
                          {
                            OFFSET -1.857 0 0
                          }
                        }
                      }
                    }
                  }
                  JOINT RightInHandPinky
                  {
                    OFFSET -3.16105 0.469368 -1.20179
                    CHANNELS 3 Zrotation Xrotation Yrotation
                    JOINT RightHandPinky1
                    {
                      OFFSET -4.14105 -0.022105 -1.09053
                      CHANNELS 3 Zrotation Xrotation Yrotation
                      JOINT RightHandPinky2
                      {
                        OFFSET -2.75653 0 0
                        CHANNELS 3 Zrotation Xrotation Yrotation
                        JOINT RightHandPinky3
                        {
                          OFFSET -1.74189 0 0
                          CHANNELS 3 Zrotation Xrotation Yrotation
                          End Site
                          {
                            OFFSET -1.645 0 0
                          }
                        }
                      }
                    }
                  }
                }
              }
            }
          }
          JOINT LeftShoulder
          {
            OFFSET 3.20143 6.91127 -0.000395
            CHANNELS 3 Zrotation Xrotation Yrotation
            JOINT LeftArm
            {
              OFFSET 12.7779 -0.028682 -0.037301
              CHANNELS 3 Zrotation Xrotation Yrotation
              JOINT LeftForeArm
              {
                OFFSET 26.4982 -0.116492 -0.017681
                CHANNELS 3 Zrotation Xrotation Yrotation
                JOINT LeftHand
                {
                  OFFSET 26.0046 -0.058588 -0.01331
                  CHANNELS 3 Zrotation Xrotation Yrotation
                  JOINT LeftHandThumb1
                  {
                    OFFSET 2.48905 0.190105 3.12053
                    CHANNELS 3 Zrotation Xrotation Yrotation
                    JOINT LeftHandThumb2
                    {
                      OFFSET 3.68274 0 0
                      CHANNELS 3 Zrotation Xrotation Yrotation
                      JOINT LeftHandThumb3
                      {
                        OFFSET 2.55832 0 0
                        CHANNELS 3 Zrotation Xrotation Yrotation
                        End Site
                        {
                          OFFSET 2.194 0 0
                        }
                      }
                    }
                  }
                  JOINT LeftInHandIndex
                  {
                    OFFSET 3.22368 0.508421 1.97842
                    CHANNELS 3 Zrotation Xrotation Yrotation
                    JOINT LeftHandIndex1
                    {
                      OFFSET 5.21684 -0.091368 0.999158
                      CHANNELS 3 Zrotation Xrotation Yrotation
                      JOINT LeftHandIndex2
                      {
                        OFFSET 3.61937 0 0
                        CHANNELS 3 Zrotation Xrotation Yrotation
                        JOINT LeftHandIndex3
                        {
                          OFFSET 2.0521 0 0
                          CHANNELS 3 Zrotation Xrotation Yrotation
                          End Site
                          {
                            OFFSET 1.805 0 0
                          }
                        }
                      }
                    }
                  }
                  JOINT LeftInHandMiddle
                  {
                    OFFSET 3.38211 0.517263 0.756737
                    CHANNELS 3 Zrotation Xrotation Yrotation
                    JOINT LeftHandMiddle1
                    {
                      OFFSET 5.17411 -0.084 0.313895
                      CHANNELS 3 Zrotation Xrotation Yrotation
                      JOINT LeftHandMiddle2
                      {
                        OFFSET 3.94947 0 0
                        CHANNELS 3 Zrotation Xrotation Yrotation
                        JOINT LeftHandMiddle3
                        {
                          OFFSET 2.47579 0 0
                          CHANNELS 3 Zrotation Xrotation Yrotation
                          End Site
                          {
                            OFFSET 1.975 0 0
                          }
                        }
                      }
                    }
                  }
                  JOINT LeftInHandRing
                  {
                    OFFSET 3.36516 0.537895 -0.128947
                    CHANNELS 3 Zrotation Xrotation Yrotation
                    JOINT LeftHandRing1
                    {
                      OFFSET 4.63474 -0.022105 -0.478947
                      CHANNELS 3 Zrotation Xrotation Yrotation
                      JOINT LeftHandRing2
                      {
                        OFFSET 3.44238 0 0
                        CHANNELS 3 Zrotation Xrotation Yrotation
                        JOINT LeftHandRing3
                        {
                          OFFSET 2.3881 0 0
                          CHANNELS 3 Zrotation Xrotation Yrotation
                          End Site
                          {
                            OFFSET 1.857 0 0
                          }
                        }
                      }
                    }
                  }
                  JOINT LeftInHandPinky
                  {
                    OFFSET 3.16105 0.469368 -1.20179
                    CHANNELS 3 Zrotation Xrotation Yrotation
                    JOINT LeftHandPinky1
                    {
                      OFFSET 4.14105 -0.022105 -1.09053
                      CHANNELS 3 Zrotation Xrotation Yrotation
                      JOINT LeftHandPinky2
                      {
                        OFFSET 2.75653 0 0
                        CHANNELS 3 Zrotation Xrotation Yrotation
                        JOINT LeftHandPinky3
                        {
                          OFFSET 1.74189 0 0
                          CHANNELS 3 Zrotation Xrotation Yrotation
                          End Site
                          {
                            OFFSET 1.645 0 0
                          }
                        }
                      }
                    }
                  }
                }
              }
            }
          }
        }
      }
    }
  }
}
MOTION
Frames: 3
Frame Time: 0.00833333
2.999999414697146563e+02 -3.182323782802124910e-04 -4.053216072702778099e-05 -8.252503077444817278e-04 2.293606291476025724e-03 -3.311908631657062610e-04 -3.189134509045334683e-03 -3.179644693241910191e-03 -1.179696031728155042e-02 1.465376608871856150e-03 3.306160955232824959e-03 1.018059300912159404e-02 3.426678103396499538e-03 -8.735844585301282038e-04 5.990771967894126162e-04 2.494450820141457838e-03 2.705516508599854330e-03 1.737167194600106740e-02 3.874807404648115874e-03 1.542063514298183181e-04 -1.755731708173352557e-02 6.974067113222699905e-04 3.023382064987888140e-03 -2.304229317952827347e-03 4.976141864217920215e-04 9.605862613366827982e-04 1.599628953991579818e-03 1.894545204938914555e-04 1.516869585418270184e-04 5.150467671029996261e-04 -4.303600121570241730e-05 8.598006651743408208e-04 7.301186792331742408e-04 -7.331629454187250081e-05 -1.312311933877721904e-05 8.280679291260826565e-06 -1.263358109042665755e-04 2.791987799113276967e-03 1.425257628227941109e-03 -1.816584914319657957e-03 1.466741396550075467e-03 8.461106939148198801e-05 6.556065683979765647e-04 -6.576881115066014576e-03 3.410221020049126594e-03 -2.596755631147559633e-03 2.691633777493964742e-03 -7.329335880636003546e-03 -6.616688715439926829e-03 -1.444631143080256667e-04 -6.150474710731871318e-03 6.704830875847433806e-03 -7.775863226892673966e-03 -8.207082246362089675e-03 0.000000000000000000e+00 0.000000000000000000e+00 0.000000000000000000e+00 2.168072252676298711e-15 1.755275699948055858e-15 0.000000000000000000e+00 -9.584175206051565533e-18 -2.391441004036946262e-15 0.000000000000000000e+00 -2.035201624031785771e-15 -1.362388521682201809e-15 -2.163952091181634067e-16 0.000000000000000000e+00 0.000000000000000000e+00 0.000000000000000000e+00 0.000000000000000000e+00 -1.909636882043171216e-15 -1.594558153655520651e-15 0.000000000000000000e+00 3.020336493767924623e-15 -1.957692508405115740e-15 -2.035201624031785771e-15 -1.362388521682201809e-15 -2.163952091181634067e-16 0.000000000000000000e+00 2.582025486121186701e-16 1.671593413551652500e-16 0.000000000000000000e+00 1.105238099926551465e-15 2.580257397844794455e-15 0.000000000000000000e+00 -4.966975387845449235e-16 -3.717304087455645832e-15 -2.035201624031785771e-15 -1.362388521682201809e-15 -2.163952091181634067e-16 0.000000000000000000e+00 0.000000000000000000e+00 0.000000000000000000e+00 0.000000000000000000e+00 -1.319592238349662757e-15 -7.488598412835342141e-16 0.000000000000000000e+00 -2.316067824967553541e-15 -6.982140653832116056e-15 -2.035201624031785771e-15 -1.362388521682201809e-15 -2.163952091181634067e-16 0.000000000000000000e+00 0.000000000000000000e+00 0.000000000000000000e+00 0.000000000000000000e+00 -1.722349219564822924e-15 1.400000273674840410e-17 0.000000000000000000e+00 -9.728488102917464389e-16 -5.312543276437513955e-15 3.662357903162056193e-06 2.776466928276546346e-03 7.483579488309307672e-04 3.498267743619590600e-03 -2.556169893745199873e-03 -1.895377617995754136e-03 -3.688874179715846344e-03 2.486580890401619576e-03 1.518105852571690478e-02 3.603776829816435212e-02 -6.186190724070067190e-03 -3.911830097223747277e-02 0.000000000000000000e+00 0.000000000000000000e+00 0.000000000000000000e+00 8.203439819186147460e-16 1.983356983622891827e-16 0.000000000000000000e+00 4.351873538575633642e-16 -1.827809633525512749e-16 0.000000000000000000e+00 1.083686097031091194e-15 4.063232667611304105e-16 -7.261356257156800547e-16 0.000000000000000000e+00 0.000000000000000000e+00 0.000000000000000000e+00 0.000000000000000000e+00 -4.820083566613383224e-16 2.237349713498901443e-15 0.000000000000000000e+00 -6.155343619899162955e-16 -1.597498851038853721e-15 1.083686097031091194e-15 4.063232667611304105e-16 -7.261356257156800547e-16 0.000000000000000000e+00 1.509789122309657513e-15 2.837872542979131275e-16 0.000000000000000000e+00 6.281635449996302097e-16 1.597089333125639082e-15 0.000000000000000000e+00 4.306967539833222480e-16 -5.202379705543296192e-16 1.083686097031091194e-15 4.063232667611304105e-16 -7.261356257156800547e-16 0.000000000000000000e+00 0.000000000000000000e+00 0.000000000000000000e+00 0.000000000000000000e+00 -2.936571919806987192e-16 4.031924722172993180e-16 0.000000000000000000e+00 -6.160547951864713808e-16 2.661606336116564516e-15 1.083686097031091194e-15 4.063232667611304105e-16 -7.261356257156800547e-16 0.000000000000000000e+00 0.000000000000000000e+00 0.000000000000000000e+00 0.000000000000000000e+00 -4.352065267923444953e-16 1.193196662921918756e-17 0.000000000000000000e+00 -2.756078742014343935e-15 1.815172443484718328e-15
3.000000038158042344e+02 -5.201690065641562414e-04 5.132197279739517158e-04 1.331147097022771517e-03 -7.080455537167996537e-04 -1.181546699164908159e-03 1.460493281456019289e-03 -3.933597965816226956e-03 -2.778038182823634413e-04 9.164147519714607379e-04 2.638633677030328105e-03 5.802010154545386711e-03 -3.862864315073069772e-03 -2.665992831718314287e-03 -3.376477866710519016e-03 -3.687464106051734341e-03 -1.629157508232460024e-03 3.027925600818897126e-03 4.446956562896648736e-03 -2.156656206108574503e-03 1.207307558586652538e-03 1.034339330850587600e-03 4.067455401548163846e-03 -3.003836273461977634e-03 -8.624613247514526394e-04 -2.676956998579503241e-03 -1.370962214662102205e-03 -1.869977101317351524e-04 -2.587230055897697862e-04 -1.109117435442926331e-04 -2.929948781236126499e-04 -8.428807986342042946e-04 -4.161266911443194626e-04 8.156480983308818291e-05 -2.449852654583837630e-04 1.348778572836870353e-04 7.482647310083375032e-03 6.022602361797966099e-04 8.615475289421180641e-03 -2.109837016955501930e-03 2.646913399778489696e-03 1.836802978942766486e-03 2.760152183388272541e-03 8.411689260107128733e-04 3.067023727202728908e-03 -1.503744740063176107e-03 8.376763820943851704e-03 -3.102165844285604147e-03 -2.090112420938800356e-02 -7.480320501263691300e-04 -2.029227330377188568e-02 7.558816414710099046e-03 -1.287748574243503460e-02 -1.147455703038992303e-02 0.000000000000000000e+00 0.000000000000000000e+00 0.000000000000000000e+00 7.502211188328688387e-16 -1.547169708735845771e-15 0.000000000000000000e+00 -6.461702687389576799e-16 -3.703087946193729135e-15 0.000000000000000000e+00 -1.828760499644318068e-15 -3.862165982834054032e-16 -1.672731900230935795e-15 0.000000000000000000e+00 0.000000000000000000e+00 0.000000000000000000e+00 0.000000000000000000e+00 2.324083811548182711e-15 3.804429906832249548e-15 0.000000000000000000e+00 2.578158819631066207e-15 1.934739049371948915e-15 -1.828760499644318068e-15 -3.862165982834054032e-16 -1.672731900230935795e-15 0.000000000000000000e+00 2.107399606680978141e-15 1.857264334856546964e-15 0.000000000000000000e+00 1.606470306490983196e-15 7.682440447313465725e-15 0.000000000000000000e+00 9.825900777931833540e-16 5.332623082289238553e-15 -1.828760499644318068e-15 -3.862165982834054032e-16 -1.672731900230935795e-15 0.000000000000000000e+00 0.000000000000000000e+00 0.000000000000000000e+00 0.000000000000000000e+00 1.342434893337221146e-16 8.205951232158158298e-15 0.000000000000000000e+00 1.267352198365473867e-15 6.051045364352160239e-15 -1.828760499644318068e-15 -3.862165982834054032e-16 -1.672731900230935795e-15 0.000000000000000000e+00 0.000000000000000000e+00 0.000000000000000000e+00 0.000000000000000000e+00 1.990514033471016914e-15 5.804852160351206449e-15 0.000000000000000000e+00 2.078767918894355071e-15 8.567436480038992684e-15 4.398432830984629061e-03 1.281813657567788117e-03 5.891809401238561061e-03 2.177876483153535873e-03 3.258844968466474007e-04 -8.685187149211515568e-04 -6.255589978570598019e-04 -2.787628483981934285e-03 3.316360004915697157e-03 2.103481056252431633e-02 4.540970259616699742e-03 -1.841652379499582326e-02 0.000000000000000000e+00 0.000000000000000000e+00 0.000000000000000000e+00 6.447852113397669927e-16 1.498653150253020855e-15 0.000000000000000000e+00 -1.985517297552222652e-15 1.184793025903944980e-15 0.000000000000000000e+00 9.572076801019940464e-16 5.381009204113008734e-16 2.250703246717608125e-16 0.000000000000000000e+00 0.000000000000000000e+00 0.000000000000000000e+00 0.000000000000000000e+00 1.236243116448410921e-15 -7.678385608083987534e-16 0.000000000000000000e+00 9.181090179337999590e-16 7.430934572180451183e-17 9.572076801019940464e-16 5.381009204113008734e-16 2.250703246717608125e-16 0.000000000000000000e+00 9.374424913894909696e-16 -3.122748538484013335e-16 0.000000000000000000e+00 4.471249057596609826e-16 -4.732118437670676124e-16 0.000000000000000000e+00 1.450426713949171979e-16 -4.406959086469712053e-15 9.572076801019940464e-16 5.381009204113008734e-16 2.250703246717608125e-16 0.000000000000000000e+00 0.000000000000000000e+00 0.000000000000000000e+00 0.000000000000000000e+00 2.741291497732183318e-17 -3.607437765082724501e-16 0.000000000000000000e+00 8.772555314798805721e-16 -5.329187399410104606e-15 9.572076801019940464e-16 5.381009204113008734e-16 2.250703246717608125e-16 0.000000000000000000e+00 0.000000000000000000e+00 0.000000000000000000e+00 0.000000000000000000e+00 1.551332781465866263e-15 -4.226725813845071266e-15 0.000000000000000000e+00 8.052451464262589448e-16 -9.723535989084737704e-15
3.000001749718454107e+02 2.294127568106100763e-04 8.573321909834582524e-04 2.053191131510547895e-03 -1.917725970144149375e-03 -1.547585414999328932e-03 6.418281693635671976e-03 8.907628021120043982e-03 2.028738306256452559e-02 -5.260698675971912409e-03 -5.446334923280633095e-03 -1.517328574893558185e-02 -6.629321432321134272e-03 -1.351136220764948600e-03 -2.447679626067944796e-03 -2.651728646394969132e-03 -2.167387843247089996e-03 -1.462696453934504877e-02 -3.436525219906330728e-03 -4.529698159400361371e-03 2.271990522336308702e-02 1.822091897629594861e-03 5.720715871463886645e-03 -3.726110963359167538e-03 -1.707504610188124083e-03 -2.434551763566960604e-03 -2.732518065482531910e-03 -5.368533316673658852e-04 -5.241157294942776126e-04 -5.827385284158161658e-04 -5.400033615708645573e-04 -1.493473556446150161e-03 -1.283116136780722760e-03 2.032990306103135117e-04 -4.188367355366096056e-04 5.776371643337011735e-05 3.651529966962972513e-03 -4.833221108998771338e-03 1.041160758879336066e-03 3.340193299772764753e-04 -2.043648096202206263e-03 2.381698281831804223e-03 9.133449199117859218e-04 5.283217585308999827e-03 -6.611697137593525696e-03 1.276660935696252025e-03 8.315902819798732387e-03 3.772901930614765316e-03 -1.705327211736284293e-02 4.982140109340696572e-03 -2.559147865758513996e-02 1.492279578087488687e-03 -3.429287505442397618e-04 1.685172195487299063e-03 0.000000000000000000e+00 0.000000000000000000e+00 0.000000000000000000e+00 -1.252013553034744311e-15 -2.581415382233255451e-15 0.000000000000000000e+00 -6.342107576692998712e-16 2.863903452435340250e-15 0.000000000000000000e+00 1.165042170245038635e-15 1.223021482847969140e-15 2.082536045162299095e-15 0.000000000000000000e+00 0.000000000000000000e+00 0.000000000000000000e+00 0.000000000000000000e+00 6.970604016013556470e-16 -8.286201753943562116e-16 0.000000000000000000e+00 -2.969912797677668105e-15 1.512924544975162033e-15 1.165042170245038635e-15 1.223021482847969140e-15 2.082536045162299095e-15 0.000000000000000000e+00 3.483672396672955788e-16 -5.215641149206641477e-16 0.000000000000000000e+00 -1.388822421726639927e-15 -2.031123461497498134e-15 0.000000000000000000e+00 6.496806525000031740e-16 4.740283496416678172e-15 1.165042170245038635e-15 1.223021482847969140e-15 2.082536045162299095e-15 0.000000000000000000e+00 0.000000000000000000e+00 0.000000000000000000e+00 0.000000000000000000e+00 1.875099915659336310e-15 -1.146712787439079764e-15 0.000000000000000000e+00 1.244306227134002251e-15 6.168938392211547790e-15 1.165042170245038635e-15 1.223021482847969140e-15 2.082536045162299095e-15 0.000000000000000000e+00 0.000000000000000000e+00 0.000000000000000000e+00 0.000000000000000000e+00 1.374984668025407255e-15 -2.263397220146983094e-15 0.000000000000000000e+00 5.099500131881636302e-16 4.895006050471699141e-15 1.866477699535201967e-03 -3.349233131144260453e-03 -2.718368318834867882e-03 -4.630862222488739584e-03 3.622303937888991191e-03 6.641545412865285797e-03 7.150272955606809012e-03 -1.235806303214542941e-02 -3.282401003625697727e-02 -5.901256462110396339e-02 2.179464488539289285e-02 6.572491102603836288e-02 0.000000000000000000e+00 0.000000000000000000e+00 0.000000000000000000e+00 5.374637732166413519e-17 2.429843879872032609e-16 0.000000000000000000e+00 3.850750348364715938e-16 3.185131825832328537e-16 0.000000000000000000e+00 -2.892995197790057006e-15 -9.756217902547984616e-16 1.061074607003285706e-15 0.000000000000000000e+00 0.000000000000000000e+00 0.000000000000000000e+00 0.000000000000000000e+00 -3.724297216645233020e-16 -1.626996964673956457e-15 0.000000000000000000e+00 -1.175311118059408639e-15 7.374693681781449932e-15 -2.892995197790057006e-15 -9.756217902547984616e-16 1.061074607003285706e-15 0.000000000000000000e+00 -1.727306897593281643e-15 -1.970392442036187539e-17 0.000000000000000000e+00 2.482895813714852341e-16 -4.842182501031940153e-17 0.000000000000000000e+00 -1.628066610753711892e-15 6.226960883359459179e-15 -2.892995197790057006e-15 -9.756217902547984616e-16 1.061074607003285706e-15 0.000000000000000000e+00 0.000000000000000000e+00 0.000000000000000000e+00 0.000000000000000000e+00 2.272107387692683351e-16 -1.664366600167083191e-15 0.000000000000000000e+00 5.332236319425867937e-16 2.608865616320339107e-15 -2.892995197790057006e-15 -9.756217902547984616e-16 1.061074607003285706e-15 0.000000000000000000e+00 0.000000000000000000e+00 0.000000000000000000e+00 0.000000000000000000e+00 -2.923937304832737656e-16 7.946100213418266677e-16 0.000000000000000000e+00 2.262774796068530053e-15 9.237373188797926531e-16
